<svg width="15" height="15" viewBox="0 0 15 15" fill="none" xmlns="http://www.w3.org/2000/svg">
<path d="M3.125 11.875H4L9.39063 6.48438L8.51563 5.60938L3.125 11V11.875ZM12.0625 5.57812L9.40625 2.95312L10.2813 2.07812C10.5208 1.83854 10.8151 1.71875 11.1641 1.71875C11.513 1.71875 11.8073 1.83854 12.0469 2.07812L12.9219 2.95312C13.1615 3.19271 13.2865 3.48177 13.2969 3.82031C13.3073 4.15885 13.1927 4.44792 12.9531 4.6875L12.0625 5.57812ZM11.1563 6.5L4.53125 13.125H1.875V10.4688L8.5 3.84375L11.1563 6.5ZM8.95313 6.04688L8.51563 5.60938L9.39063 6.48438L8.95313 6.04688Z" fill="black"/>
</svg>
